<?xml version="1.0" encoding="UTF-8"?>
<!DOCTYPE svg PUBLIC "-//W3C//DTD SVG 1.1//EN" "http://www.w3.org/Graphics/SVG/1.1/DTD/svg11.dtd">
<svg version="1.1" id="Alfa_Romeo_Logo" xmlns="http://www.w3.org/2000/svg" width="800" height="800" viewBox="0 0 800 800">
  <title>Alfa Romeo Logo</title>
  <desc>For more information see: http://de.wikipedia.org/wiki/Datei:Alfa_Romeo.svg</desc>
    <path fill="#1E1D51" d="M771.184,399.995c0,205-166.185,371.184-371.184,371.184c-205,0-371.185-166.185-371.185-371.184     C28.815,194.996,195,28.811,400,28.811C604.999,28.811,771.184,194.996,771.184,399.995z"/>
  <linearGradient id="SVGID_1_" gradientUnits="userSpaceOnUse" x1="442.7197" y1="254.0332" x2="608.761" y2="-196.8505" gradientTransform="matrix(1, 0, 0, -1, -197.6, 480.01)">
    <stop offset="0" stop-color="#FFFFFF"/>
    <stop offset="1" stop-color="#53EEEF"/>
  </linearGradient>
  <path fill="url(#SVGID_1_)" d="M398.556,139.469c-31.702,0.596-62.115,6.238-90.389,16.107v203.771h90.389V139.469z      M234.144,200.196c-47.136,40.006-80.376,95.182-91.678,157.693h91.678V200.196z M304.969,431.642v213.029     c29.017,9.852,60.227,15.486,92.762,16.082V431.642H304.969z M142.169,432.222c9.396,66.57,43.341,125.454,92.556,167.546V432.222     H142.169z"/>
  <linearGradient id="SVGID_2_" gradientUnits="userSpaceOnUse" x1="605.7939" y1="326.5273" x2="779.5824" y2="-171.5998" gradientTransform="matrix(1, 0, 0, -1, -197.6, 480.01)">
    <stop offset="0" stop-color="#2F7FBE"/>
    <stop offset="1" stop-color="#225D8B"/>
  </linearGradient>
  <path fill="url(#SVGID_2_)" d="M405.132,142.093c140.058,2.738,252.776,117.195,252.776,257.908     c0,140.711-112.719,255.106-252.776,257.843V142.093z"/>
  <linearGradient id="SVGID_3_" gradientUnits="userSpaceOnUse" x1="2539.6934" y1="414.6416" x2="2766.1399" y2="-24.7228" gradientTransform="matrix(1.0207, 0, 0, -1.0134, -2409.69, 638.847)">
    <stop offset="0" stop-color="#D50D16"/>
    <stop offset="0.5" stop-color="#880D16"/>
    <stop offset="1" stop-color="#520D16"/>
  </linearGradient>
  <path fill="url(#SVGID_3_)" d="M301.433,158.812v206.311h95.71v60.902h-95.71v215.695c-22.126-9.133-42.733-21.168-61.327-35.64     V426.025h-99.711c-0.834-8.466-1.264-17.05-1.264-25.733c0-11.928,0.81-23.665,2.369-35.169c0.119-0.877,0.241-1.752,0.368-2.626     c-0.127,0.874-0.249,1.75-0.368,2.626h98.605V194.465C258.698,179.988,279.307,167.949,301.433,158.812z"/>
  <rect x="470.423" y="228.948" fill="#9D0D16" width="88.725" height="12.38"/>
  <linearGradient id="SVGID_4_" gradientUnits="userSpaceOnUse" x1="2475.3916" y1="471.9961" x2="2980.1631" y2="40.8597" gradientTransform="matrix(1, 0, 0, -1, -2342.91, 643.5)">
    <stop offset="0" stop-color="#F8FFBF"/>
    <stop offset="0.5089" stop-color="#F8E45E"/>
    <stop offset="0.75" stop-color="#F8D35E"/>
    <stop offset="1" stop-color="#EE8E0A"/>
  </linearGradient>
  <path fill="url(#SVGID_4_)" d="M401.083,10.005C266.055,9.791,134.581,79.751,62.266,205.006     C-45.368,391.434,18.585,630.096,205.012,737.729s425.089,43.681,532.723-142.747C845.368,408.556,781.415,169.894,594.988,62.26     C533.816,26.943,467.027,10.11,401.083,10.005z M400,28.808c204.894,0,371.188,166.293,371.188,371.187     c0,204.893-166.294,371.187-371.188,371.187S28.813,604.888,28.813,399.995C28.813,195.101,195.106,28.808,400,28.808z      M377.651,41.807v76.938h23.444V92.824l18.932,25.921l30.848,4.514L424.142,88.71c5.865-1.22,16.868-7.448,16.868-20.569     c-0.001-19.644-17.69-25.921-28.797-25.921L377.651,41.807z M407.273,58.675c6.376,0,10.897,4.322,11.104,9.053     c0.205,4.731-3.067,9.865-10.278,9.865h-7.415l-0.4-18.506L407.273,58.675z M517.792,63.046c-0.416-0.002-0.837,0.005-1.251,0.013     c-20.227,0.412-37.328,12.676-41.422,32.705c-4.077,19.948,14.04,43.553,36.187,48.579c24.027,5.454,46.452-5.956,51.507-31.853     c4.328-22.177-11.971-43.952-36.174-48.567C523.661,63.356,520.704,63.064,517.792,63.046z M234.079,83.358l-20.981,11.104     l9.865,86.803l22.22-16.455l-2.876-13.154l24.271-14.405l11.104,8.228l25.509-10.278L234.079,83.358z M518.334,84.312     c1.426,0.004,2.873,0.135,4.333,0.413c11.678,2.227,19.091,12.323,17.049,23.032c-2.043,10.709-12.773,17.999-24.451,15.772     c-11.678-2.227-17.44-13.536-15.397-24.245C501.653,89.914,508.352,84.285,518.334,84.312z M234.904,110.917l17.681,13.58     l-12.754,7.402L234.904,110.917z M626.132,122.033l-65.821,45.665l19.331,15.217l31.686-24.683l-16.056,39.9l8.229,7.815     l40.325-16.455l-24.27,32.911l14.804,20.982l46.491-66.647l-14.818-17.681l-37.85,15.217l15.23-38.262L626.132,122.033z      M400,131.757c-148.011,0-268.251,120.24-268.251,268.251c0,148.011,120.24,268.237,268.251,268.237     s268.251-120.227,268.251-268.237C668.25,251.997,548.011,131.757,400,131.757z M154.266,140.539l-32.085,37.024l55.942,49.779     l15.644-18.093l-21.395-18.932l15.63-16.868l-13.58-12.341l-15.63,17.281l-7.814-7.402l16.868-18.519L154.266,140.539z      M394.815,142.1v212.888h-83.45V157.691C337.47,148.135,365.546,142.677,394.815,142.1z M405.133,142.1     c98.227,1.92,183.001,58.794,224.881,141.134c-0.543-0.723-1.09-1.432-1.65-2.128c-10.262-12.746-23.188-21.2-34.2-28.281     c-0.876-0.561-1.901-0.844-2.94-0.813c-1.605,0.046-3.098,0.838-4.036,2.141c-2.563,3.549-7.401,6.5-13.709,6.5h-47.521     c-2.386,0-4.649,0.65-6.604,2.063c-1.953,1.414-3.688,3.944-3.688,6.938v5.417c-0.023,0.031-0.066,0.114-0.271,0.271     c-0.465,0.357-1.379,0.735-2.398,0.735H472.05l0.039-3.417v-0.039v-0.026c0-6.234-3.179-11.897-8.086-15.475l-0.077-0.064     l-0.064-0.039l-17.9-12.135l-0.025-0.025l-0.025-0.013c-2.851-1.881-6.035-2.772-9.04-2.708c-1.003,0.021-1.984,0.155-2.928,0.387     c-3.776,0.925-6.85,3.311-8.834,6.358c-3.971,6.095-3.059,15.729,4.578,21.188l8.396,6.422l0.064,0.052l0.064,0.039     c1.767,1.264,2.747,2.791,2.747,3.211l-0.207,13.605v0.039v0.039c0,0.166-0.024,0.207-0.038,0.271     c-0.236-0.001-0.688-0.054-1.625-0.361c-1.985-0.651-3.492-1.49-5.829-2.373s-5.342-1.586-9.208-1.586     c-6.806,0-12.398,3.071-15.9,7.157c-1.228,1.431-2.229,2.965-3.018,4.552V142.1z M301.049,161.727v203.577h93.767v60.095h-93.767     v212.837c-21.678-9.012-41.867-20.888-60.083-35.168V425.399h-97.688c-0.817-8.354-1.238-16.823-1.238-25.392     c0-11.77,0.793-23.351,2.321-34.704h96.604V196.908C259.181,182.623,279.371,170.743,301.049,161.727z M475.906,201.383     c-4.215,0-7.635,3.42-7.635,7.634s3.42,7.635,7.635,7.635c4.214,0,7.634-3.42,7.634-7.635S480.12,201.383,475.906,201.383z      M495.354,201.383c-4.215,0-7.635,3.42-7.635,7.634s3.42,7.635,7.635,7.635c4.214,0,7.634-3.42,7.634-7.635     S499.567,201.383,495.354,201.383z M514.788,201.383c-4.215,0-7.635,3.42-7.635,7.634s3.42,7.635,7.635,7.635     c4.214,0,7.634-3.42,7.634-7.635S519.002,201.383,514.788,201.383z M534.222,201.383c-4.214,0-7.634,3.42-7.634,7.634     s3.42,7.635,7.634,7.635c4.215,0,7.635-3.42,7.635-7.635S538.437,201.383,534.222,201.383z M553.669,201.383     c-4.214,0-7.635,3.42-7.634,7.634c0,4.214,3.42,7.635,7.634,7.635c4.215,0,7.635-3.42,7.635-7.635S557.884,201.383,553.669,201.383z      M230.649,205.445v149.543h-84.688C156.402,295.705,187.103,243.385,230.649,205.445z M470.425,221.333v12.38h88.726v-12.38H470.425     z M470.425,237.995v12.38h88.726v-12.38H470.425z M717.462,238.046l-69.936,28.384l19.744,46.078l18.506-7.815l-10.278-23.458     l8.641-4.114l9.878,22.633l16.855-7.002l-9.453-21.794l8.229-3.701l9.865,23.445l17.28-6.99L717.462,238.046z M78.565,246.687     L68.7,268.481l68.285,31.686l21.807-44.44l-16.868-8.64l-13.167,23.045L78.565,246.687z M437.166,252.425     c0.813-0.047,1.764,0.165,3.057,1.019l17.848,12.109c2.225,1.622,3.701,4.622,3.701,7.042l-0.206,16.726v0.026v0.039     c0,6.587,3.332,12.201,7.635,16.12c2.536,2.311,5.441,4.134,8.55,5.249c-3.108,1.114-6.014,2.938-8.55,5.249     c-4.303,3.919-7.635,9.533-7.635,16.12v0.039v0.026l0.206,16.791c0,2.419-1.631,5.458-3.855,7.08l-17.745,12.032     c-1.724,1.138-2.779,1.122-3.778,0.877s-1.98-0.954-2.644-1.973c-1.328-2.038-1.905-4.412,1.935-7.157l0.064-0.051l0.064-0.052     l8.537-6.513c2.887-2.065,6.925-5.538,6.925-11.503v-0.039v-0.039l-0.206-13.683c0-2.919-1.049-6.215-3.998-8.447     c-2.949-2.232-7.162-2.508-11.193-1.187c-2.879,0.944-4.761,1.958-6.268,2.527c-1.508,0.57-2.784,0.916-5.559,0.916     c-3.888,0-6.275-1.462-8.072-3.56c-1.799-2.098-2.722-5.019-2.722-6.938v-1.032c0-1.919,0.923-4.84,2.722-6.938     c1.798-2.098,4.185-3.56,8.072-3.56c2.774,0,4.051,0.346,5.559,0.916c1.507,0.569,3.389,1.583,6.268,2.527     c4.031,1.322,8.244,1.046,11.193-1.187c2.949-2.232,3.998-5.605,3.998-8.524l0.206-13.605v-0.039v-0.039     c0-5.965-4.167-9.527-7.054-11.593l-8.408-6.422l-0.064-0.052l-0.064-0.051c-3.84-2.746-3.263-5.12-1.935-7.158     c0.663-1.019,1.645-1.728,2.644-1.973C436.642,252.48,436.895,252.441,437.166,252.425z M592.203,263.89     c9.873,6.454,20.114,13.739,28.126,23.69c8.991,11.169,15.359,25.539,15.359,46.722c0,39.799-37.167,71.766-72.915,71.766h-86.391     c-2.455,0-4.966,1.125-6.486,2.863s-2.132,3.836-2.115,5.842s0.662,4.056,2.167,5.765c1.504,1.709,3.976,2.85,6.435,2.85h84.341     c30.322,0,46.49,19.517,46.49,42.558c0,22.453-16.793,43.563-46.284,43.563h-86.906c-2.106,0-4.345,0.954-5.727,2.489     c-1.381,1.534-1.958,3.399-1.947,5.184s0.593,3.62,1.961,5.133c1.367,1.513,3.599,2.476,5.713,2.476h64.687     c13.923,0,25.767,13.568,25.767,26.527c0,6.571-1.868,12.638-5.997,17.049s-10.726,7.608-21.82,7.608h-38.791     c-1.547,0-3.173,0.339-4.669,1.419s-2.72,3.145-2.656,5.287c0.063,2.144,1.298,3.981,2.734,5.004     c1.436,1.022,3.039,1.393,4.591,1.393h25.728c3.629,0,6.313,1.588,8.434,4.166c2.12,2.577,3.354,6.19,3.354,9.078     c0,3.597-1.329,6.92-3.676,9.002c-1.522,1.35-3.627,2.287-6.513,2.515c0.142-1.486,0.166-3.17-0.825-5.185     c-1.177-2.391-4.458-4.294-7.247-4.294h-15.437c-5.377,0-11.311-2.027-15.694-5.855c-4.385-3.827-7.39-9.251-7.39-17.061     c0-7.182,3.001-12.302,7.26-15.979c4.259-3.678,9.916-5.597,14.083-5.597h37.94c1.713,0,3.381-0.296,4.978-1.265     c1.596-0.968,3.239-3.008,3.237-5.545c-0.003-2.537-1.656-4.578-3.25-5.545c-1.595-0.968-3.253-1.251-4.965-1.251h-59.438     c-22.87,0-35.605-16.184-35.605-33.633c0-15.567,13.332-34.021,33.542-34.021h88.454c2.408,0,4.885-1.123,6.358-2.837     c1.473-1.714,2.051-3.753,2.037-5.7c-0.014-1.946-0.618-3.948-2.076-5.635c-1.458-1.688-3.906-2.824-6.319-2.824h-90.092     c-25.186,0-45.11-18.676-45.11-46.878c0-23.556,19.275-47.715,47.78-47.715h81.657c4.453,0,8.448-2.003,10.897-4.926     s3.54-6.525,3.56-10.072c0.019-3.547-1.039-7.18-3.495-10.124c-2.456-2.943-6.48-4.939-10.962-4.939h-87.125l-0.064-4.888     c0-3.017,1.639-6.052,4.269-8.447c2.629-2.395,6.166-3.766,8.33-3.766h48.825c1.889,0,3.759-0.437,5.597-1.702     c1.838-1.266,3.546-3.995,3.546-7.402c0-3.51-1.045-5.285-3.546-7.402c-1.838-1.266-3.708-1.703-5.597-1.703h-48.825     c-2.164,0-5.701-1.371-8.33-3.766c-2.63-2.395-4.269-5.481-4.269-8.499l0.038-2.992h59.593c3.299,0,6.309-1.058,8.68-2.876     c2.369-1.818,4.307-4.607,4.307-8.125v-4.423h28.978C580.995,270.97,587.526,268.168,592.203,263.89z M644.78,318.543     c8.517,25.607,13.128,53.001,13.128,81.464c0,90.1-46.205,169.403-116.22,215.519c2.733-3.889,4.011-8.577,4.011-13.206     c0-5.515-1.979-11.106-5.7-15.63c-0.147-0.179-0.323-0.34-0.477-0.516c11.734-0.566,20.668-4.538,26.488-10.756     c6.291-6.72,8.782-15.552,8.782-24.103c0-12.632-7.072-24.787-17.783-31.492h3.92c34.562,0,56.601-26.108,56.601-53.879     c0-23.546-15.315-44.64-40.79-50.927c36.576-6.871,69.265-39.784,69.265-80.716C646.005,328.699,645.569,323.458,644.78,318.543z      M405.133,320.375c0.789,1.587,1.79,3.121,3.018,4.552c3.502,4.086,9.095,7.158,15.9,7.158c3.866,0,6.871-0.704,9.208-1.586     c2.337-0.883,3.844-1.722,5.829-2.373c0.938-0.307,1.389-0.36,1.625-0.361c0.014,0.065,0.038,0.11,0.038,0.271v0.039v0.039     l0.207,13.683c0,0.421-0.98,1.87-2.747,3.134l-0.064,0.039l-0.064,0.052l-8.524,6.525c-7.637,5.459-8.42,14.99-4.449,21.085     c1.688,2.593,4.169,4.699,7.196,5.842c-8.264,10.346-12.986,23.271-12.986,36.263c0,28.656,18.582,50.379,43.228,55.827     c-18.459,6.308-30.022,24.746-30.022,42.067c0,22.71,17.987,43.949,45.923,43.949h2.025c-0.453,0.354-0.915,0.69-1.354,1.07     c-6.19,5.345-10.833,13.587-10.833,23.794c0,10.607,4.485,19.229,10.91,24.837c6.425,5.608,14.608,8.396,22.491,8.396h12.922     c-0.268,0.942-0.567,1.818-0.567,1.818c-0.633,1.433-0.581,3.072,0.142,4.462c0.722,1.39,2.036,2.378,3.572,2.683     c3.692,0.731,7.182,0.781,10.343,0.245c-36.354,20.844-78.267,33.095-122.964,33.968V320.375z M127.119,329.363l-80.226,26.333     l-2.876,23.858l76.112,41.138l-0.413-27.558l-11.503-5.326l1.729-28.333l13.476-3.366L127.119,329.363z M717.05,331.839     c-26.854,0-40.313,22.004-40.313,44.014c0,22.009,15.924,44.026,40.313,44.026c24.378,0,40.726-19.96,40.726-44.026     C757.774,352.198,743.49,331.839,717.05,331.839z M472.063,347.276h87.01c1.763,0,2.41,0.479,3.044,1.238s1.104,2.066,1.096,3.456     c-0.007,1.39-0.494,2.716-1.147,3.495s-1.305,1.238-2.992,1.238h-81.657c-2.487,0-4.916,0.159-7.286,0.452     c1.251-2.519,1.96-5.314,1.96-8.241v-0.026v-0.039L472.063,347.276z M717.565,355.697c11.836,0,18.737,11.053,18.737,20.157     c0,8.898-7.157,20.156-18.737,20.156c-11.587,0-18.325-9.769-18.325-20.156S705.729,355.697,717.565,355.697z M91.888,363.989     l-0.98,15.785l-21.794-10.098L91.888,363.989z M144.49,435.717h86.159v158.814C184.837,554.632,153.236,498.819,144.49,435.717z      M311.365,435.717h83.45v222.134c-29.27-0.576-57.346-6.04-83.45-15.591V435.717z"/>
  <path fill="#9D0D16" d="M437.166,252.425c0.813-0.047,1.764,0.165,3.057,1.019l17.848,12.109c2.225,1.622,3.701,4.622,3.701,7.042     l-0.206,16.726v0.026v0.039c0,6.587,3.332,12.201,7.635,16.12c2.536,2.311,5.441,4.134,8.55,5.249     c-3.108,1.114-6.014,2.938-8.55,5.249c-4.303,3.919-7.635,9.533-7.635,16.12v0.039v0.026l0.206,16.791     c0,2.419-1.631,5.458-3.855,7.08l-17.745,12.032c-1.724,1.138-2.779,1.122-3.778,0.877s-1.98-0.954-2.644-1.973     c-1.328-2.038-1.905-4.412,1.935-7.157l0.064-0.051l0.064-0.052l8.537-6.513c2.887-2.065,6.925-5.538,6.925-11.503v-0.039v-0.039     l-0.206-13.683c0-2.919-1.049-6.215-3.998-8.447c-2.949-2.232-7.162-2.508-11.193-1.187c-2.879,0.944-4.761,1.958-6.268,2.527     c-1.508,0.57-2.784,0.916-5.559,0.916c-3.888,0-6.275-1.462-8.072-3.56c-1.799-2.098-2.722-5.019-2.722-6.938v-1.032     c0-1.919,0.923-4.84,2.722-6.938c1.798-2.098,4.185-3.56,8.072-3.56c2.774,0,4.051,0.346,5.559,0.916     c1.507,0.569,3.389,1.583,6.268,2.527c4.031,1.322,8.244,1.046,11.193-1.187c2.949-2.232,3.998-5.605,3.998-8.524l0.206-13.605     v-0.039v-0.039c0-5.965-4.167-9.527-7.054-11.593l-8.408-6.422l-0.064-0.052l-0.064-0.051c-3.84-2.746-3.263-5.12-1.935-7.158     c0.663-1.019,1.645-1.728,2.644-1.973C436.642,252.48,436.895,252.441,437.166,252.425z"/>
  <linearGradient id="SVGID_5_" gradientUnits="userSpaceOnUse" x1="693.7559" y1="189.0161" x2="796.1385" y2="-115.4122" gradientTransform="matrix(1, 0, 0, -1, -197.6, 480.01)">
    <stop offset="0" stop-color="#157031"/>
    <stop offset="1" stop-color="#0F5324"/>
  </linearGradient>
  <path fill="url(#SVGID_5_)" d="M592.203,263.89c9.873,6.454,20.114,13.739,28.126,23.69c8.991,11.169,15.359,25.539,15.359,46.722     c0,39.799-37.167,71.766-72.915,71.766h-86.391c-2.455,0-4.966,1.125-6.486,2.863s-2.132,3.836-2.115,5.842s0.662,4.056,2.167,5.765     c1.504,1.709,3.976,2.85,6.435,2.85h84.341c30.322,0,46.49,19.517,46.49,42.558c0,22.453-16.793,43.563-46.284,43.563h-86.906     c-2.106,0-4.345,0.954-5.727,2.489c-1.381,1.534-1.958,3.399-1.947,5.184s0.593,3.62,1.961,5.133     c1.367,1.513,3.599,2.476,5.713,2.476h64.687c13.923,0,25.767,13.568,25.767,26.527c0,6.571-1.868,12.638-5.997,17.049     s-10.726,7.608-21.82,7.608h-38.791c-1.547,0-3.173,0.339-4.669,1.419s-2.72,3.145-2.656,5.287c0.063,2.144,1.298,3.981,2.734,5.004     c1.436,1.022,3.039,1.393,4.591,1.393h25.728c3.629,0,6.313,1.588,8.434,4.166c2.12,2.577,3.354,6.19,3.354,9.078     c0,3.597-1.329,6.92-3.676,9.002c-1.522,1.35-3.627,2.287-6.513,2.515c0.142-1.486,0.166-3.17-0.825-5.185     c-1.177-2.391-4.458-4.294-7.247-4.294h-15.437c-5.377,0-11.311-2.027-15.694-5.855c-4.385-3.827-7.39-9.251-7.39-17.061     c0-7.182,3.001-12.302,7.26-15.979c4.259-3.678,9.916-5.597,14.083-5.597h37.94c1.713,0,3.381-0.296,4.978-1.265     c1.596-0.968,3.239-3.008,3.237-5.545c-0.003-2.537-1.656-4.578-3.25-5.545c-1.595-0.968-3.253-1.251-4.965-1.251h-59.438     c-22.87,0-35.605-16.184-35.605-33.633c0-15.567,13.332-34.021,33.542-34.021h88.454c2.408,0,4.885-1.123,6.358-2.837     c1.473-1.714,2.051-3.753,2.037-5.7c-0.014-1.946-0.618-3.948-2.076-5.635c-1.458-1.688-3.906-2.824-6.319-2.824h-90.092     c-25.186,0-45.11-18.676-45.11-46.878c0-23.556,19.275-47.715,47.78-47.715h81.657c4.453,0,8.448-2.003,10.897-4.926     s3.54-6.525,3.56-10.072c0.019-3.547-1.039-7.18-3.495-10.124c-2.456-2.943-6.48-4.939-10.962-4.939h-87.125l-0.064-4.888     c0-3.017,1.639-6.052,4.269-8.447c2.629-2.395,6.166-3.766,8.33-3.766h48.825c1.889,0,3.759-0.437,5.597-1.702     c1.838-1.266,3.546-3.995,3.546-7.402c0-3.51-1.045-5.285-3.546-7.402c-1.838-1.266-3.708-1.703-5.597-1.703h-48.825     c-2.164,0-5.701-1.371-8.33-3.766c-2.63-2.395-4.269-5.481-4.269-8.499l0.038-2.992h59.593c3.299,0,6.309-1.058,8.68-2.876     c2.369-1.818,4.307-4.607,4.307-8.125v-4.423h28.978C580.995,270.97,587.526,268.168,592.203,263.89z"/>
</svg>